<svg width="364" height="61" viewBox="0 0 364 61" fill="none" xmlns="http://www.w3.org/2000/svg">
<g clip-path="url(#clip0_2_25)">
<path d="M41.0872 57C49.4867 57 56.2958 50.2266 56.2958 41.8713C56.2958 33.5159 49.4867 26.7425 41.0872 26.7425C32.6876 26.7425 25.8785 33.5159 25.8785 41.8713C25.8785 50.2266 32.6876 57 41.0872 57Z" fill="#97CF26"/>
<path d="M12.4989 48.9134C16.4087 48.9134 19.5782 45.7605 19.5782 41.8713C19.5782 37.982 16.4087 34.8291 12.4989 34.8291C8.58911 34.8291 5.41959 37.982 5.41959 41.8713C5.41959 45.7605 8.58911 48.9134 12.4989 48.9134Z" fill="#A169F7"/>
<path d="M41.0872 23.1709C46.4935 23.1709 50.8763 18.8112 50.8763 13.4332C50.8763 8.05526 46.4935 3.69556 41.0872 3.69556C35.6808 3.69556 31.2981 8.05526 31.2981 13.4332C31.2981 18.8112 35.6808 23.1709 41.0872 23.1709Z" fill="#FF6163"/>
<path d="M12.4989 25.8664C19.4018 25.8664 24.9978 20.2999 24.9978 13.4332C24.9978 6.56654 19.4018 1 12.4989 1C5.59595 1 0 6.56654 0 13.4332C0 20.2999 5.59595 25.8664 12.4989 25.8664Z" fill="#00AAFF"/>
<path d="M123.295 21.7961L116.04 41.4669L108.778 21.7961H101.36L111.345 48.846H120.735L130.747 21.7961H123.295ZM133.816 21.7961H141.268V48.846H133.816V21.7961ZM79.4374 41.2715H93.0338L95.8384 48.846H103.731L89.1114 9.22815H83.3802L68.7609 48.846H76.6531L79.4374 41.2715ZM86.2119 22.8609L90.8118 35.3143H81.6459L86.2119 22.8609Z" fill="black"/>
<path d="M137.556 18.7232C140.193 18.7232 142.332 16.5962 142.332 13.9723C142.332 11.3485 140.193 9.22144 137.556 9.22144C134.918 9.22144 132.78 11.3485 132.78 13.9723C132.78 16.5962 134.918 18.7232 137.556 18.7232Z" fill="black"/>
<path d="M167.431 27.7533V21.7961H158.523V14.3362H151.132V21.7961H145.265V27.7533H151.132V39.4115C151.132 45.4091 154.146 49.4188 161.849 49.4188C163.759 49.3862 165.649 49.0189 167.431 48.3338L166.53 42.4912C165.47 42.7787 164.377 42.926 163.278 42.9292C161.077 42.9292 158.536 41.9858 158.536 38.96V27.7533H167.424M184.435 42.6529C182.994 42.6198 181.595 42.1645 180.414 41.3442C179.232 40.5238 178.319 39.3749 177.791 38.0412C177.263 36.7075 177.142 35.2484 177.443 33.8466C177.744 32.4448 178.455 31.1626 179.485 30.1606C180.516 29.1586 181.821 28.4813 183.237 28.2136C184.652 27.9459 186.116 28.0997 187.444 28.6556C188.773 29.2116 189.907 30.1451 190.704 31.3391C191.501 32.5332 191.927 33.9347 191.927 35.3682C191.917 36.3355 191.715 37.2912 191.333 38.1808C190.951 39.0704 190.396 39.8765 189.701 40.5529C189.006 41.2294 188.184 41.763 187.281 42.1233C186.379 42.4837 185.414 42.6636 184.442 42.6529M184.442 21.0886C181.643 21.1535 178.926 22.0384 176.63 23.6324C174.335 25.2264 172.563 27.4586 171.537 30.0495C170.511 32.6404 170.276 35.4749 170.862 38.1979C171.448 40.9209 172.829 43.4115 174.831 45.3578C176.833 47.304 179.368 48.6194 182.118 49.1392C184.868 49.659 187.711 49.3602 190.292 48.28C192.872 47.1999 195.075 45.3865 196.624 43.067C198.173 40.7475 198.999 38.0249 199 35.2402C198.954 31.4439 197.394 27.8212 194.665 25.1678C191.935 22.5144 188.258 21.0472 184.442 21.0886Z" fill="black"/>
</g>
<path d="M227.683 37.2727H233.411L236.803 41.6705L239.223 44.5341L245.036 52H238.899L234.945 46.9886L233.257 44.6023L227.683 37.2727ZM245.871 31.5455C245.871 35.3068 245.166 38.5284 243.757 41.2102C242.359 43.8807 240.45 45.9261 238.03 47.3466C235.621 48.767 232.888 49.4773 229.831 49.4773C226.774 49.4773 224.036 48.767 221.615 47.3466C219.206 45.9148 217.297 43.8636 215.888 41.1932C214.49 38.5114 213.791 35.2955 213.791 31.5455C213.791 27.7841 214.49 24.5682 215.888 21.8977C217.297 19.2159 219.206 17.1648 221.615 15.7443C224.036 14.3239 226.774 13.6136 229.831 13.6136C232.888 13.6136 235.621 14.3239 238.03 15.7443C240.45 17.1648 242.359 19.2159 243.757 21.8977C245.166 24.5682 245.871 27.7841 245.871 31.5455ZM239.513 31.5455C239.513 28.8977 239.098 26.6648 238.268 24.8466C237.45 23.017 236.314 21.6364 234.859 20.7045C233.405 19.7614 231.729 19.2898 229.831 19.2898C227.933 19.2898 226.257 19.7614 224.803 20.7045C223.348 21.6364 222.206 23.017 221.376 24.8466C220.558 26.6648 220.149 28.8977 220.149 31.5455C220.149 34.1932 220.558 36.4318 221.376 38.2614C222.206 40.0795 223.348 41.4602 224.803 42.4034C226.257 43.3352 227.933 43.8011 229.831 43.8011C231.729 43.8011 233.405 43.3352 234.859 42.4034C236.314 41.4602 237.45 40.0795 238.268 38.2614C239.098 36.4318 239.513 34.1932 239.513 31.5455ZM268.311 37.9886V22.8182H274.482V49H268.499V44.3466H268.226C267.635 45.8125 266.663 47.0114 265.311 47.9432C263.97 48.875 262.317 49.3409 260.351 49.3409C258.635 49.3409 257.118 48.9602 255.8 48.1989C254.493 47.4261 253.47 46.3068 252.732 44.8409C251.993 43.3636 251.624 41.5795 251.624 39.4886V22.8182H257.794V38.5341C257.794 40.1932 258.249 41.5114 259.158 42.4886C260.067 43.4659 261.26 43.9545 262.737 43.9545C263.646 43.9545 264.527 43.733 265.379 43.2898C266.232 42.8466 266.93 42.1875 267.476 41.3125C268.033 40.4261 268.311 39.3182 268.311 37.9886ZM292.418 49.5114C289.793 49.5114 287.526 48.9659 285.616 47.875C283.719 46.7727 282.259 45.2159 281.236 43.2045C280.213 41.1818 279.702 38.8011 279.702 36.0625C279.702 33.3693 280.213 31.0057 281.236 28.9716C282.27 26.9261 283.713 25.3352 285.565 24.1989C287.418 23.0511 289.594 22.4773 292.094 22.4773C293.707 22.4773 295.23 22.7386 296.662 23.2614C298.105 23.7727 299.378 24.5682 300.48 25.6477C301.594 26.7273 302.469 28.1023 303.105 29.7727C303.741 31.4318 304.06 33.4091 304.06 35.7045V37.5966H282.599V33.4375H298.145C298.134 32.2557 297.878 31.2045 297.378 30.2841C296.878 29.3523 296.179 28.6193 295.281 28.0852C294.395 27.5511 293.361 27.2841 292.179 27.2841C290.918 27.2841 289.81 27.5909 288.855 28.2045C287.901 28.8068 287.156 29.6023 286.622 30.5909C286.099 31.5682 285.832 32.642 285.821 33.8125V37.4432C285.821 38.9659 286.099 40.2727 286.656 41.3636C287.213 42.4432 287.991 43.2727 288.991 43.8523C289.991 44.4205 291.162 44.7045 292.503 44.7045C293.401 44.7045 294.213 44.5795 294.94 44.3295C295.668 44.0682 296.298 43.6875 296.832 43.1875C297.366 42.6875 297.77 42.0682 298.043 41.3295L303.804 41.9773C303.44 43.5 302.747 44.8295 301.724 45.9659C300.713 47.0909 299.418 47.9659 297.838 48.5909C296.259 49.2045 294.452 49.5114 292.418 49.5114ZM325.967 37.9886V22.8182H332.138V49H326.155V44.3466H325.882C325.291 45.8125 324.32 47.0114 322.967 47.9432C321.626 48.875 319.973 49.3409 318.007 49.3409C316.291 49.3409 314.774 48.9602 313.456 48.1989C312.149 47.4261 311.126 46.3068 310.388 44.8409C309.649 43.3636 309.28 41.5795 309.28 39.4886V22.8182H315.45V38.5341C315.45 40.1932 315.905 41.5114 316.814 42.4886C317.723 43.4659 318.916 43.9545 320.393 43.9545C321.303 43.9545 322.183 43.733 323.036 43.2898C323.888 42.8466 324.587 42.1875 325.132 41.3125C325.689 40.4261 325.967 39.3182 325.967 37.9886ZM350.074 49.5114C347.449 49.5114 345.182 48.9659 343.273 47.875C341.375 46.7727 339.915 45.2159 338.892 43.2045C337.869 41.1818 337.358 38.8011 337.358 36.0625C337.358 33.3693 337.869 31.0057 338.892 28.9716C339.926 26.9261 341.369 25.3352 343.222 24.1989C345.074 23.0511 347.25 22.4773 349.75 22.4773C351.364 22.4773 352.886 22.7386 354.318 23.2614C355.761 23.7727 357.034 24.5682 358.136 25.6477C359.25 26.7273 360.125 28.1023 360.761 29.7727C361.398 31.4318 361.716 33.4091 361.716 35.7045V37.5966H340.256V33.4375H355.801C355.79 32.2557 355.534 31.2045 355.034 30.2841C354.534 29.3523 353.835 28.6193 352.938 28.0852C352.051 27.5511 351.017 27.2841 349.835 27.2841C348.574 27.2841 347.466 27.5909 346.511 28.2045C345.557 28.8068 344.813 29.6023 344.278 30.5909C343.756 31.5682 343.489 32.642 343.477 33.8125V37.4432C343.477 38.9659 343.756 40.2727 344.312 41.3636C344.869 42.4432 345.648 43.2727 346.648 43.8523C347.648 44.4205 348.818 44.7045 350.159 44.7045C351.057 44.7045 351.869 44.5795 352.597 44.3295C353.324 44.0682 353.955 43.6875 354.489 43.1875C355.023 42.6875 355.426 42.0682 355.699 41.3295L361.46 41.9773C361.097 43.5 360.403 44.8295 359.381 45.9659C358.369 47.0909 357.074 47.9659 355.494 48.5909C353.915 49.2045 352.108 49.5114 350.074 49.5114Z" fill="black"/>
<defs>
<clipPath id="clip0_2_25">
<rect width="199" height="56" fill="white" transform="translate(0 1)"/>
</clipPath>
</defs>
</svg>
